<svg width="146" height="146" viewBox="0 0 146 146" fill="none" xmlns="http://www.w3.org/2000/svg">
<circle cx="73" cy="73" r="73" fill="#202024"/>
<path fill-rule="evenodd" clip-rule="evenodd" d="M16 110.162V106.117H31.7567C40.4229 106.117 52.3095 106.042 58.1713 105.95L68.8292 105.782V99.3777V92.9732H51.2615H33.694V88.9289V84.8845H44.0164C49.6938 84.8845 57.6012 84.8094 61.5884 84.7173L68.8378 84.5502L68.7704 78.3349L68.703 72.1196L67.5656 71.9486C66.94 71.8547 55.0818 71.7694 41.2142 71.759L16.0002 71.7403V67.6959V63.6516H73.0001H130V67.688V71.7244L103.944 71.7955C78.4863 71.8651 77.88 71.8779 77.5295 72.3573C77.0067 73.0724 77.0042 83.6705 77.5268 84.193C77.9387 84.6049 88.4393 84.8844 103.501 84.8844H112.306V88.9203V92.9562L95.0972 93.0279C78.9469 93.0951 77.8681 93.1272 77.56 93.5487C77.3115 93.8886 77.1861 96.458 77.0445 104.102L76.8573 114.206H46.4288H16.0003L16 110.162Z" fill="#0C7489"/>
<path fill-rule="evenodd" clip-rule="evenodd" d="M85.6122 82.9255C84.2999 80.8093 80.1809 73.4486 80.2631 73.3664C80.3208 73.3086 82.535 73.1861 85.1837 73.094L89.9994 72.9265L90.3898 73.5341C90.6046 73.8683 91.9763 76.2176 93.4384 78.7548L96.0965 83.3678H90.9915C86.4026 83.3678 85.8588 83.3232 85.6122 82.9255V82.9255Z" fill="#D7D9CE"/>
<path fill-rule="evenodd" clip-rule="evenodd" d="M105.117 116.794C97.924 104.302 92.5201 94.8454 92.404 94.5476C92.3047 94.2929 93.3362 94.2405 97.3856 94.2948L102.493 94.3633L106.967 102.013C111.609 109.949 113.033 112.136 113.928 112.699C114.294 112.93 115.895 113.065 119.194 113.146L123.933 113.261V117.651V122.042L116.034 122.039L108.135 122.036L105.117 116.794Z" fill="#D7D9CE"/>
<path fill-rule="evenodd" clip-rule="evenodd" d="M39.8092 103.134C40.269 102.327 41.5552 100.055 42.6675 98.0841L44.6896 94.5008L49.8323 94.4954L54.9749 94.4901L54.3586 95.5643C54.0197 96.1552 52.7553 98.3581 51.5488 100.46L49.3552 104.281L48.1878 104.441C47.5458 104.529 45.2097 104.601 42.9967 104.601H38.973L39.8092 103.134Z" fill="#D7D9CE"/>
<path fill-rule="evenodd" clip-rule="evenodd" d="M51.3879 83.2187C51.3879 83.1309 52.6676 80.7881 54.2316 78.0125L57.0753 72.9659L59.3259 73.1115C60.5637 73.1914 62.8623 73.257 64.4339 73.257H67.2914L64.4169 78.2492L61.5424 83.2414L56.4652 83.3099C53.6727 83.3476 51.3879 83.3072 51.3879 83.2187V83.2187Z" fill="#D7D9CE"/>
<path fill-rule="evenodd" clip-rule="evenodd" d="M63.7939 61.5775C64.3024 60.6033 70.8422 49.5136 72.3079 47.1401C73.5465 45.1344 73.7171 44.9564 74.004 45.3707C74.4717 46.0459 82.5784 59.839 83.0908 60.8315C83.3307 61.2962 83.4525 61.7512 83.3613 61.8425C83.2701 61.9338 78.7621 62.0421 73.3434 62.083L63.4912 62.1574L63.7939 61.5775Z" fill="#D7D9CE"/>
<path fill-rule="evenodd" clip-rule="evenodd" d="M27.8858 61.8191C27.8965 60.7792 28.8552 56.8725 29.778 54.1145C34.4632 40.111 45.7692 29.1896 60.0419 24.8802C63.9408 23.703 67.013 23.2073 71.4833 23.0342C94.3811 22.1475 114.393 38.5871 118.236 61.4399L118.395 62.3878H114.612H110.83L110.415 60.5552C108.812 53.4647 105.466 47.4481 100.181 42.1503C92.1712 34.1206 81.5777 30.2187 70.1071 31.0734C65.104 31.4461 60.8078 32.5824 56.2898 34.7278C45.9565 39.6346 37.9118 49.8158 35.6827 60.808L35.3623 62.3878H31.6214C27.9087 62.3878 27.8804 62.3824 27.8859 61.8191H27.8858Z" fill="#CD7E41"/>
<path fill-rule="evenodd" clip-rule="evenodd" d="M113.772 86.5274L113.696 83.7469L110.955 83.675C108.48 83.61 108.231 83.561 108.394 83.1694C109.175 81.2834 110.142 78.0094 110.592 75.7315L111.13 73.0042H114.88H118.631L118.482 74.0785C117.882 78.4061 116.968 81.9032 115.448 85.6853C113.83 89.7109 113.859 89.6966 113.772 86.5275L113.772 86.5274Z" fill="#CD7E41"/>
<path fill-rule="evenodd" clip-rule="evenodd" d="M105.542 96.7738C104.813 95.5275 104.217 94.4469 104.217 94.3724C104.217 94.2978 105.696 94.2371 107.503 94.2371C109.31 94.2371 110.789 94.3026 110.789 94.3826C110.789 94.7702 107.325 99.0397 107.011 99.0397C106.931 99.0397 106.27 98.02 105.542 96.7738V96.7738Z" fill="#CD7E41"/>
<path fill-rule="evenodd" clip-rule="evenodd" d="M31.7107 88.0441C30.5517 85.5734 29.4277 82.4432 28.8053 79.9531C28.219 77.607 27.6273 74.315 27.6273 73.3981C27.6273 73.0591 28.1507 73.0042 31.3842 73.0042H35.1409L35.3003 74.3594C35.5143 76.1796 36.5875 80.2534 37.3428 82.1123L37.9557 83.6206H35.2012H32.4467L32.3753 86.4642L32.3039 89.3079L31.7107 88.0441Z" fill="#CD7E41"/>
<path fill-rule="evenodd" clip-rule="evenodd" d="M38.2865 98.2375C37.4333 97.2189 36.3824 95.9021 35.9511 95.3112L35.1668 94.2369H39.1066C41.2736 94.2369 43.045 94.3223 43.0433 94.4266C43.0419 94.5309 42.3196 95.8477 41.4389 97.3529L39.8377 100.09L38.2865 98.2375Z" fill="#CD7E41"/>
</svg>
